# xmcd CD database file
#
# Track frame offsets:
#	150
#	13497
#	27660
#	37385
#	57115
#	72622
#	89312
#	101235
#	112575
#	122225
#	133730
#	145352
#	164345
#	175705
#	184305
#	197402
#	211277
#	223722
#	237142
#	247775
#	259510
#	271805
#	283492
#	295942
#	306425
#	318025
#
# Disc length: 4555 seconds
#
# Revision: 4
# Processed by: cddbd v1.5.2PL0 Copyright (c) Steve Scherf et al.
# Submitted via: CDex 1.51
#
DISCID=9411c91a
DTITLE=The Carter Brothers - Southern Country Boy - The Jewel Sessions, 1965-1969
DYEAR=2000
DGENRE=Blues
TTITLE0=Southern Country Boy
TTITLE1=Queen Bee
TTITLE2=You Don't Know
TTITLE3=Why Baby Why
TTITLE4=Booze In The Bottle
TTITLE5=Wrong Number
TTITLE6=It's Gonna Hurt
TTITLE7=Get It Together
TTITLE8=Roast Possum
TTITLE9=Stop Talking In Your Sleep
TTITLE10=So Glad She's Mine
TTITLE11=I've Been Mistreated (For Five Long Years)
TTITLE12=Booby Trap Baby
TTITLE13=Early In The Morning
TTITLE14=Anything For You Baby
TTITLE15=Wonderful Girl
TTITLE16=Don't Pity Me
TTITLE17=Sucker Of Circumstances
TTITLE18=What Did I Do
TTITLE19=Cheatin' Woman
TTITLE20=There's Trouble Brewin'
TTITLE21=Just Consider Yourself
TTITLE22=What You Say Big Mama
TTITLE23=Coming Back To You
TTITLE24=I Don't Care
TTITLE25=Blues On Tour
EXTD=YEAR: 2000
EXTT0=
EXTT1=
EXTT2=
EXTT3=
EXTT4=
EXTT5=
EXTT6=
EXTT7=
EXTT8=
EXTT9=
EXTT10=
EXTT11=
EXTT12=
EXTT13=
EXTT14=
EXTT15=
EXTT16=
EXTT17=
EXTT18=
EXTT19=
EXTT20=
EXTT21=
EXTT22=
EXTT23=
EXTT24=
EXTT25=
PLAYORDER=
